HIERARCHY
ROOT Hips
{
	OFFSET 0.000000 0.000000 0.000000
	CHANNELS 6 Xposition Yposition Zposition Xrotation Yrotation Zrotation
	JOINT LeftUpLeg_virtual
	{
		OFFSET 0.000000 0.000000 0.000000
		CHANNELS 3 Xrotation Yrotation Zrotation
		JOINT LeftUpLeg
		{
			OFFSET 15.427100 -6.655098 0.678600
			CHANNELS 3 Xrotation Yrotation Zrotation
			JOINT LeftLeg
			{
				OFFSET 4.081073 -39.591068 13.024000
				CHANNELS 3 Xrotation Yrotation Zrotation
				JOINT LeftFoot
				{
					OFFSET -4.081074 -37.707932 -15.979700
					CHANNELS 3 Xrotation Yrotation Zrotation
					JOINT LeftToeBase
					{
						OFFSET 5.346399 -15.068900 20.645000
						CHANNELS 3 Xrotation Yrotation Zrotation
						JOINT LeftToe_End
						{
							OFFSET 2.754700 0.931300 11.300900
							CHANNELS 3 Xrotation Yrotation Zrotation
							End Site
							{
								OFFSET 0 0 0
							}
						}
					}
				}
			}
		}
	}
	JOINT RightUpLeg_virtual
	{
		OFFSET 0.000000 0.000000 0.000000
		CHANNELS 3 Xrotation Yrotation Zrotation
		JOINT RightUpLeg
		{
			OFFSET -15.569500 -6.655098 0.678600
			CHANNELS 3 Xrotation Yrotation Zrotation
			JOINT RightLeg
			{
				OFFSET -4.081825 -39.591045 13.023800
				CHANNELS 3 Xrotation Yrotation Zrotation
				JOINT RightFoot
				{
					OFFSET 4.081824 -37.707954 -15.979600
					CHANNELS 3 Xrotation Yrotation Zrotation
					JOINT RightToeBase
					{
						OFFSET -5.346400 -15.068900 20.645000
						CHANNELS 3 Xrotation Yrotation Zrotation
						JOINT RightToe_End
						{
							OFFSET -2.754700 0.931300 11.300900
							CHANNELS 3 Xrotation Yrotation Zrotation
							End Site
							{
								OFFSET 0 0 0
							}
						}
					}
				}
			}
		}
	}
	JOINT Spine_virtual
	{
		OFFSET 0.000000 0.000000 0.000000
		CHANNELS 3 Xrotation Yrotation Zrotation
		JOINT Spine
		{
			OFFSET -0.279200 12.230698 -2.892100
			CHANNELS 3 Xrotation Yrotation Zrotation
			JOINT Spine1
			{
				OFFSET -0.232667 10.192268 -1.242267
				CHANNELS 3 Xrotation Yrotation Zrotation
				JOINT Spine1_split
				{
					OFFSET -0.232667 10.192268 -1.242267
					CHANNELS 3 Xrotation Yrotation Zrotation
					JOINT Spine2
					{
						OFFSET -0.232667 10.192268 -1.242267
						CHANNELS 3 Xrotation Yrotation Zrotation
						JOINT Neck_virtual
						{
							OFFSET 0.000000 0.000000 0.000000
							CHANNELS 3 Xrotation Yrotation Zrotation
							JOINT Neck
							{
								OFFSET -0.418800 17.814194 8.416900
								CHANNELS 3 Xrotation Yrotation Zrotation
								JOINT Head
								{
									OFFSET 0.000000 7.031097 3.806800
									CHANNELS 3 Xrotation Yrotation Zrotation
									JOINT HeadTop_End
									{
										OFFSET 0.000000 24.646606 12.978600
										CHANNELS 3 Xrotation Yrotation Zrotation
										End Site
										{
											OFFSET 0 0 0
										}
									}
								}
							}
						}
						JOINT LeftShoulder_virtual
						{
							OFFSET 0.000000 0.000000 0.000000
							CHANNELS 3 Xrotation Yrotation Zrotation
							JOINT LeftShoulder
							{
								OFFSET 8.476499 7.247704 -3.868750
								CHANNELS 3 Xrotation Yrotation Zrotation
								JOINT LeftShoulder_split
								{
									OFFSET 8.476499 7.247704 -3.868750
									CHANNELS 3 Xrotation Yrotation Zrotation
									JOINT LeftArm
									{
										OFFSET 9.308998 -2.777710 0.208600
										CHANNELS 3 Xrotation Yrotation Zrotation
										JOINT LeftForeArm
										{
											OFFSET 29.972298 0.000000 0.000000
											CHANNELS 3 Xrotation Yrotation Zrotation
											JOINT LeftHand
											{
												OFFSET 26.026505 0.000000 0.000000
												CHANNELS 3 Xrotation Yrotation Zrotation
												End Site
												{
													OFFSET 0 0 0
												}
											}
										}
									}
								}
							}
						}
						JOINT RightShoulder_virtual
						{
							OFFSET 0.000000 0.000000 0.000000
							CHANNELS 3 Xrotation Yrotation Zrotation
							JOINT RightShoulder
							{
								OFFSET -7.570500 7.247704 -3.868750
								CHANNELS 3 Xrotation Yrotation Zrotation
								JOINT RightShoulder_split
								{
									OFFSET -7.570500 7.247704 -3.868750
									CHANNELS 3 Xrotation Yrotation Zrotation
									JOINT RightArm
									{
										OFFSET -9.308998 -2.777710 0.208500
										CHANNELS 3 Xrotation Yrotation Zrotation
										JOINT RightForeArm
										{
											OFFSET -29.972300 0.000000 0.000000
											CHANNELS 3 Xrotation Yrotation Zrotation
											JOINT RightHand
											{
												OFFSET -26.026505 0.000000 0.000000
												CHANNELS 3 Xrotation Yrotation Zrotation
												End Site
												{
													OFFSET 0 0 0
												}
											}
										}
									}
								}
							}
						}
					}
				}
			}
		}
	}
}
MOTION
Frames: 11
Frame Time: 0.03333333
-0.312878 73.715523 0.316544 0.000000 0.000000 0.000000 7.317461 -12.241914 4.027453 -53.089250 3.136504 23.813496 44.390222 0.874063 7.073577 4.705771 0.780591 -24.041530 0.496554 0.447691 -0.704709 0.000000 0.000000 0.000000 7.157885 -13.053268 4.430655 -28.921449 1.103187 -36.194337 45.008908 5.021626 1.383144 -18.590749 -10.067234 28.759222 1.911838 0.684963 0.089420 0.000000 0.000000 0.000000 8.443133 -11.256675 4.188419 7.940246 1.089406 -1.394084 7.991487 2.135558 -0.924977 1.157117 0.578566 0.273581 0.000000 0.000000 0.000000 8.142081 1.216291 -0.487374 -1.617119 0.141650 -0.359762 -17.406394 0.030468 2.557974 0.000000 0.000000 0.000000 7.151979 1.336017 -0.703203 2.501872 -12.940574 -9.276638 -4.442489 -4.322276 -1.747137 -22.764911 -3.848304 -43.508018 -179.432580 -56.944578 178.977744 0.000000 0.000000 0.000000 7.167804 1.313021 -0.524148 0.616323 8.816075 10.603733 0.833389 4.009251 -0.902732 5.752700 5.412815 41.109655 -178.412737 87.276307 177.093964 0.000000 0.000000 0.000000 
-0.226616 73.755859 0.407185 0.000000 0.000000 0.000000 7.391650 -12.176521 3.972820 -53.035316 3.009737 23.817454 44.380185 0.943589 7.069908 4.577960 0.805594 -24.102023 0.529931 0.441495 -0.698542 0.000000 0.000000 0.000000 7.186913 -13.019170 4.375896 -28.811589 1.095176 -36.156084 44.789297 4.954781 1.381566 -18.590583 -10.093368 28.796959 1.883745 0.670671 0.072784 0.000000 0.000000 0.000000 8.532517 -11.196749 4.110674 7.906329 1.116097 -1.409341 8.035137 2.126253 -0.947238 1.190368 0.630608 0.242540 0.000000 0.000000 0.000000 8.133509 1.207172 -0.497804 -1.618848 0.114954 -0.342072 -17.354758 0.081024 2.519587 0.000000 0.000000 0.000000 7.219727 1.325476 -0.692835 2.473141 -12.938674 -9.309342 -4.378663 -4.208824 -1.808879 -22.635894 -3.845312 -43.739924 -179.540975 -57.087442 178.853052 0.000000 0.000000 0.000000 7.206273 1.299670 -0.541112 0.656189 8.956514 10.661532 0.834974 4.087160 -0.918858 5.928500 5.291447 40.948367 -178.865715 87.245435 177.608524 0.000000 0.000000 0.000000 
-0.090105 73.778114 0.491173 0.000000 0.000000 0.000000 7.482366 -12.207178 3.882110 -53.010628 2.830717 23.859316 44.498416 1.039389 7.047503 4.358859 0.866117 -24.211525 0.568444 0.439196 -0.687536 0.000000 0.000000 0.000000 7.244438 -13.031297 4.281769 -28.733533 1.038456 -36.084327 44.487215 4.868126 1.376716 -18.672709 -10.132935 28.790829 1.926945 0.659120 0.050055 0.000000 0.000000 0.000000 8.646207 -11.139645 3.998362 7.880384 1.170357 -1.460683 8.073845 2.145578 -0.958767 1.141651 0.570981 0.208345 0.000000 0.000000 0.000000 8.113723 1.220319 -0.502842 -1.567967 0.029011 -0.333247 -17.204091 0.000220 2.486126 0.000000 0.000000 0.000000 7.275180 1.333463 -0.695950 2.439936 -12.934610 -9.390789 -4.315581 -4.203579 -1.754162 -22.623702 -3.737172 -44.237933 -179.702222 -57.263531 178.686819 0.000000 0.000000 0.000000 7.238724 1.317143 -0.543587 0.703089 9.160168 10.773705 0.799314 4.182277 -0.927174 6.357377 5.065951 40.648269 -178.681205 87.275734 177.493353 0.000000 0.000000 0.000000 
0.072309 73.766785 0.556580 0.000000 0.000000 0.000000 7.573758 -12.328586 3.778850 -53.013756 2.645133 23.922751 44.713229 1.148073 7.008906 4.069652 0.948052 -24.347635 0.592273 0.440692 -0.661901 0.000000 0.000000 0.000000 7.328195 -13.106270 4.171912 -28.736972 0.956408 -36.006336 44.194394 4.796075 1.382794 -18.747490 -10.162801 28.797638 1.966899 0.651330 0.030747 0.000000 0.000000 0.000000 8.759406 -11.078569 3.882417 7.857923 1.246696 -1.543015 8.100914 2.185980 -0.965052 1.048262 0.495745 0.197683 0.000000 0.000000 0.000000 8.085120 1.253370 -0.506112 -1.496685 -0.086935 -0.336464 -17.026430 -0.180805 2.447794 0.000000 0.000000 0.000000 7.311127 1.352830 -0.716470 2.415149 -12.931101 -9.475926 -4.276618 -4.293767 -1.638641 -22.740386 -3.547127 -44.836818 -179.885586 -57.402877 178.519111 0.000000 0.000000 0.000000 7.257306 1.356509 -0.537048 0.752444 9.393902 10.877570 0.698702 4.240821 -0.868466 6.925974 4.744561 40.234647 -177.781068 87.245940 176.660370 0.000000 0.000000 0.000000 
0.226967 73.725929 0.596161 0.000000 0.000000 0.000000 7.665950 -12.500590 3.682883 -53.035285 2.485161 23.987457 44.982386 1.263884 6.960950 3.746794 1.039384 -24.472634 0.594112 0.447118 -0.620273 0.000000 0.000000 0.000000 7.431102 -13.208232 4.071509 -28.816278 0.883835 -35.949024 43.968639 4.768673 1.395232 -18.786312 -10.178386 28.867228 1.920095 0.644884 0.025563 0.000000 0.000000 0.000000 8.863155 -11.003758 3.777775 7.838122 1.333243 -1.654212 8.118142 2.231922 -0.975407 0.979054 0.429958 0.232162 0.000000 0.000000 0.000000 8.054152 1.292551 -0.515560 -1.445089 -0.208908 -0.361879 -16.906738 -0.426176 2.400771 0.000000 0.000000 0.000000 7.333502 1.371388 -0.755109 2.405951 -12.946604 -9.529663 -4.267004 -4.418650 -1.545854 -22.946618 -3.292251 -45.362695 179.948519 -57.454861 178.399487 0.000000 0.000000 0.000000 7.266487 1.403486 -0.530718 0.799121 9.629999 10.935995 0.541552 4.200538 -0.750698 7.513567 4.353679 39.754962 -176.357165 87.056621 175.293253 0.000000 0.000000 0.000000 
0.344341 73.672768 0.583256 0.000000 0.000000 0.000000 7.766647 -12.680076 3.612894 -53.061441 2.359220 24.036964 45.254146 1.386391 6.912709 3.446384 1.126319 -24.555230 0.587456 0.459312 -0.581661 0.000000 0.000000 0.000000 7.548933 -13.301745 3.992173 -28.944668 0.852377 -35.913903 43.841632 4.792685 1.396356 -18.830546 -10.194797 28.970073 1.822487 0.638213 0.039216 0.000000 0.000000 0.000000 8.967059 -10.959805 3.702503 7.822274 1.417493 -1.780745 8.127385 2.265904 -0.998106 0.941059 0.367726 0.311945 0.000000 0.000000 0.000000 8.026633 1.331337 -0.537574 -1.429920 -0.321572 -0.410115 -16.861821 -0.691589 2.329798 0.000000 0.000000 0.000000 7.353523 1.383745 -0.810218 2.413843 -12.990630 -9.533155 -4.280813 -4.522918 -1.502969 -23.156672 -2.998165 -45.693590 179.819579 -57.373787 178.350651 0.000000 0.000000 0.000000 7.272323 1.446745 -0.532391 0.844273 9.834380 10.915950 0.334583 4.081793 -0.599810 8.030645 3.904277 39.291681 -175.079646 86.703958 174.067303 0.000000 0.000000 0.000000 
0.392081 73.627548 0.533695 0.000000 0.000000 0.000000 7.855459 -12.828553 3.568593 -53.074644 2.251174 24.083368 45.467514 1.512278 6.879451 3.231470 1.189558 -24.600311 0.586356 0.476046 -0.557107 0.000000 0.000000 0.000000 7.657455 -13.400552 3.943700 -29.091531 0.876633 -35.901940 43.827319 4.853637 1.390837 -18.945276 -10.220768 29.017710 1.845389 0.631820 0.079397 0.000000 0.000000 0.000000 9.057507 -10.945406 3.652935 7.811146 1.496081 -1.914307 8.139694 2.286420 -1.031640 0.983677 0.345143 0.366207 0.000000 0.000000 0.000000 8.008037 1.363720 -0.567610 -1.447159 -0.413652 -0.484054 -16.863443 -0.958089 2.221185 0.000000 0.000000 0.000000 7.379479 1.390297 -0.871000 2.432599 -13.099349 -9.479246 -4.333680 -4.564883 -1.519483 -23.241483 -2.698669 -45.804157 179.756741 -57.121654 178.407082 0.000000 0.000000 0.000000 7.271127 1.480923 -0.542629 0.888689 10.003872 10.812402 0.121496 3.945812 -0.411873 8.403263 3.424357 38.928694 -174.362599 86.252524 173.410607 0.000000 0.000000 0.000000 
0.373138 73.607330 0.431683 0.000000 0.000000 0.000000 7.911072 -12.931107 3.542066 -53.031744 2.143326 24.123311 45.568645 1.633200 6.870124 3.145571 1.207629 -24.632358 0.578087 0.491639 -0.540436 0.000000 0.000000 0.000000 7.724747 -13.475849 3.919141 -29.244746 0.941457 -35.905553 43.911484 4.932692 1.387826 -19.142980 -10.254991 28.965422 2.046558 0.627371 0.137376 0.000000 0.000000 0.000000 9.110146 -10.975569 3.626247 7.793933 1.566513 -2.037916 8.150468 2.295719 -1.064858 1.089513 0.337616 0.396014 0.000000 0.000000 0.000000 8.002766 1.389103 -0.596161 -1.456235 -0.488702 -0.581760 -16.849066 -1.236928 2.063885 0.000000 0.000000 0.000000 7.414286 1.402464 -0.921351 2.455446 -13.285503 -9.387369 -4.418199 -4.529097 -1.611780 -23.123800 -2.422757 -45.760669 179.784226 -56.708663 178.586866 0.000000 0.000000 0.000000 7.268957 1.509637 -0.556615 0.934850 10.134329 10.644636 -0.088538 3.814695 -0.229564 8.600988 2.988712 38.759455 -174.262714 85.723000 173.389365 0.000000 0.000000 0.000000 
0.293761 73.611496 0.288811 0.000000 0.000000 0.000000 7.900222 -12.999595 3.535239 -52.884235 2.038628 24.155603 45.518477 1.746563 6.887132 3.150701 1.173260 -24.656558 0.562335 0.496081 -0.527876 0.000000 0.000000 0.000000 7.710053 -13.537175 3.917820 -29.391393 1.026127 -35.904303 44.074938 5.037601 1.389830 -19.368647 -10.280850 28.849339 2.285014 0.625802 0.190955 0.000000 0.000000 0.000000 9.084360 -11.053562 3.624132 7.757258 1.634014 -2.121689 8.152430 2.313445 -1.079737 1.209497 0.314442 0.410424 0.000000 0.000000 0.000000 7.999773 1.424132 -0.607378 -1.413695 -0.532680 -0.698196 -16.729520 -1.531364 1.836471 0.000000 0.000000 0.000000 7.446248 1.436764 -0.944644 2.475648 -13.541326 -9.274318 -4.487556 -4.423185 -1.700359 -22.829578 -2.179851 -45.661573 179.889752 -56.154141 178.866631 0.000000 0.000000 0.000000 7.268918 1.548305 -0.562823 0.995821 10.205978 10.414412 -0.283611 3.752742 -0.076399 8.624369 2.595198 38.761914 -174.596984 85.119341 173.813548 0.000000 0.000000 0.000000 
0.160613 73.635704 0.101536 0.000000 0.000000 0.000000 7.790248 -13.057699 3.558132 -52.589345 1.960200 24.184520 45.318186 1.835473 6.927522 3.202150 1.081855 -24.708745 0.548648 0.484867 -0.513627 0.000000 0.000000 0.000000 7.573534 -13.618261 3.952096 -29.498016 1.095908 -35.903583 44.286014 5.177234 1.390997 -19.575320 -10.267312 28.714173 2.420290 0.626940 0.224022 0.000000 0.000000 0.000000 8.920507 -11.178258 3.643920 7.684280 1.703416 -2.147584 8.137589 2.358821 -1.060459 1.250255 0.287333 0.407964 0.000000 0.000000 0.000000 7.980291 1.479659 -0.581567 -1.287927 -0.555840 -0.842614 -16.424103 -1.774197 1.520746 0.000000 0.000000 0.000000 7.457900 1.502751 -0.924553 2.483469 -13.837449 -9.147876 -4.512633 -4.286845 -1.782115 -22.404738 -1.951043 -45.596499 -179.954789 -55.499669 179.212552 0.000000 0.000000 0.000000 7.261449 1.610721 -0.538041 1.069047 10.222092 10.132303 -0.414038 3.723583 0.007025 8.480629 2.219648 38.838129 -175.107076 84.401501 174.414126 0.000000 0.000000 0.000000 
-0.020244 73.651466 -0.115227 0.000000 0.000000 0.000000 7.543485 -13.141485 3.633690 -52.111263 1.923031 24.205431 45.023972 1.876127 6.980215 3.267945 0.948691 -24.831643 0.547330 0.458471 -0.497349 0.000000 0.000000 0.000000 7.286043 -13.729303 4.036237 -29.547030 1.141970 -35.921689 44.535111 5.349939 1.384565 -19.762423 -10.214557 28.554941 2.442359 0.630919 0.233539 0.000000 0.000000 0.000000 8.599563 -11.344886 3.705174 7.572372 1.780586 -2.108740 8.095252 2.430745 -0.995503 1.156781 0.256789 0.428956 0.000000 0.000000 0.000000 7.931335 1.558326 -0.510043 -1.070751 -0.545882 -1.016954 -15.921528 -1.893704 1.097309 0.000000 0.000000 0.000000 7.433942 1.592938 -0.849481 2.470717 -14.073354 -9.011045 -4.432264 -4.110889 -1.796088 -21.883752 -1.697414 -45.618635 -179.803842 -54.796620 179.559854 0.000000 0.000000 0.000000 7.245252 1.692313 -0.465231 1.148816 10.167721 9.788478 -0.482972 3.703938 0.041324 8.329831 1.860991 38.854829 -175.973649 83.503933 175.373740 0.000000 0.000000 0.000000 
